<?xml version="1.0" encoding="UTF-8"?><svg id="Layer_2" xmlns="http://www.w3.org/2000/svg" viewBox="0 0 274.86 274.86"><defs><style>.cls-1{fill:#fffffb;}.cls-2,.cls-3{fill:#1c61e7;}.cls-3{opacity:.18;}</style></defs><g id="Layer_1-2"><rect class="cls-2" width="274.86" height="274.86" rx="33.78" ry="33.78"/><g><path class="cls-1" d="M215.72,112.32c-1.83-3.18-5.22-5.13-8.89-5.13h-28.55l14.3-24.77c1.83-3.18,1.83-7.09,0-10.26s-5.22-5.13-8.89-5.13H90.94c-3.67,0-7.05,1.96-8.89,5.13s-1.83,7.09,0,10.26l14.3,24.77h-28.32c-3.67,0-7.05,1.96-8.89,5.13-1.83,3.18-1.83,7.09,0,10.26l46.27,80.13c1.83,3.18,5.22,5.13,8.89,5.13s7.05-1.96,8.89-5.13l14.25-24.67,14.25,24.67c1.83,3.18,5.22,5.13,8.89,5.13s7.05-1.96,8.89-5.13l46.27-80.13c1.83-3.18,1.83-7.09,0-10.26Zm-49.79-24.77l-28.52,49.4-28.69-49.4h57.21Zm-51.62,89.51l-28.49-49.35h22.39l17.29,29.95-11.2,19.39Zm46.27,0l-11.28-19.54,17.21-29.8h22.57l-28.49,49.35Z"/><polygon class="cls-3" points="96.35 107.18 108.2 127.71 99.98 127.71 87.65 107.18 96.35 107.18"/><polygon class="cls-3" points="178.43 107.18 166.58 127.71 174.79 127.71 187.13 107.18 178.43 107.18"/><polygon class="cls-3" points="153.62 164.88 141.57 185.06 137.43 177.89 149.28 157.36 153.62 164.88"/><polygon class="cls-3" points="137.4 136.64 125.49 157.36 121.17 149.87 133.03 129.11 137.4 136.64"/></g></g></svg>