<svg width="24" height="25" viewBox="0 0 24 25" fill="none" xmlns="http://www.w3.org/2000/svg">
<path fill-rule="evenodd" clip-rule="evenodd" d="M22 12.8399C22 18.3628 17.5228 22.8399 12 22.8399C6.47715 22.8399 2 18.3628 2 12.8399C2 7.31706 6.47715 2.8399 12 2.8399C17.5228 2.8399 22 7.31706 22 12.8399ZM19.9381 13.8399C19.446 17.7862 16.0796 20.8399 12 20.8399C7.58172 20.8399 4 17.2582 4 12.8399C4 8.76029 7.05369 5.3939 11 4.9018V8.96592C9.27477 9.40997 8 10.9761 8 12.8399C8 15.049 9.79086 16.8399 12 16.8399C13.8638 16.8399 15.4299 15.5651 15.874 13.8399H19.9381ZM13 4.9018V8.96592C14.4056 9.3277 15.5122 10.4343 15.874 11.8399H19.9381C19.4869 8.22119 16.6187 5.35305 13 4.9018ZM12 14.8399C13.1046 14.8399 14 13.9445 14 12.8399C14 11.7353 13.1046 10.8399 12 10.8399C10.8954 10.8399 10 11.7353 10 12.8399C10 13.9445 10.8954 14.8399 12 14.8399Z" fill="#6C86AD"/>
</svg>
