<svg width="24" height="25" viewBox="0 0 24 25" fill="none" xmlns="http://www.w3.org/2000/svg">
<path d="M12 15.32C9 15.32 7.25 16.82 6 18.32" stroke="#6C86AD" stroke-width="2" stroke-linecap="round"/>
<path d="M12 15.32C15 15.32 16.75 16.82 18 18.32" stroke="#6C86AD" stroke-width="2" stroke-linecap="round"/>
<path d="M15 10.4311C15 12.1493 14.1822 15.32 12 15.32C9.81779 15.32 9 12.1493 9 10.4311C9 8.7129 10.3431 7.32001 12 7.32001C13.6569 7.32001 15 8.7129 15 10.4311Z" stroke="#6C86AD" stroke-width="2" stroke-linecap="round"/>
<path d="M12 21.32C16.9706 21.32 21 17.2906 21 12.32C21 7.34944 16.9706 3.32001 12 3.32001C7.02944 3.32001 3 7.34944 3 12.32C3 17.2906 7.02944 21.32 12 21.32Z" stroke="#6C86AD" stroke-width="2" stroke-linecap="round" stroke-linejoin="round"/>
</svg>
