<?xml version="1.0" encoding="utf-8"?>
<!-- Svg Vector Icons : http://www.onlinewebfonts.com/icon -->
<!DOCTYPE svg PUBLIC "-//W3C//DTD SVG 1.1//EN" "http://www.w3.org/Graphics/SVG/1.1/DTD/svg11.dtd">
<svg version="1.1" xmlns="http://www.w3.org/2000/svg" xmlns:xlink="http://www.w3.org/1999/xlink" x="0px" y="0px" viewBox="0 0 1000 1000" enable-background="new 0 0 1000 1000" xml:space="preserve">
<metadata> Svg Vector Icons : http://www.onlinewebfonts.com/icon </metadata>
<g><path d="M942.8,500c0-122.3-49.6-233-129.7-313.1C732.9,106.8,622.3,57.3,500,57.3c-122.3,0-233,49.5-313.1,129.6C106.8,267,57.2,377.7,57.2,500c0,122.2,49.6,232.9,129.7,313.1C267,893.2,377.7,942.8,500,942.8c122.3,0,232.9-49.6,313-129.7C893.2,733,942.8,622.3,942.8,500L942.8,500z M846.5,153.5C935.1,242.2,990,364.7,990,500c0,135.3-54.9,257.8-143.5,346.5C757.8,935.2,635.3,990,500,990s-257.8-54.8-346.4-143.5C64.8,757.9,10,635.3,10,500c0-135.3,54.8-257.8,143.6-346.5C242.2,64.8,364.7,10,500,10S757.8,64.8,846.5,153.5z"/><path d="M463.9,619.2v-12.4c0-31,4.1-55.2,12.4-72.8c8.2-17.5,26.8-38.7,55.8-63.5c28.8-24.8,47.4-44.9,55.7-60.4c8.2-15.5,12.4-35.6,12.4-60.4c0-24.8-7.7-44.3-23.2-58.8c-15.5-14.4-37.7-21.7-66.6-21.7c-30.9,0-69.2,10.4-114.5,31L371,244.6c51.5-24.8,98-37.1,139.3-37.1c49.5,0,88.2,13,116.1,38.7c27.9,25.9,41.8,60.4,41.8,103.7c0,29-5.2,53.7-15.5,74.3c-10.4,20.7-31.5,45.5-63.5,74.3c-32,29-51.7,49.5-58.8,61.9c-7.3,12.4-10.8,30-10.8,52.6v6.2L463.9,619.2L463.9,619.2z M544.4,736.8c0,18.6-4.2,32.5-12.4,41.8c-8.3,9.3-20.7,13.9-37.2,13.9c-16.6,0-28.9-4.6-37.2-13.9c-8.3-9.3-12.4-23.2-12.4-41.8c0-18.6,4.1-31.9,12.4-40.2c8.3-8.2,20.6-12.4,37.2-12.4c16.5,0,28.8,4.2,37.2,12.4C540.2,704.9,544.4,718.2,544.4,736.8z"/></g>
</svg>