<?xml version="1.0" encoding="UTF-8"?><svg xmlns="http://www.w3.org/2000/svg" viewBox="0 0 336.95 191.55"><defs><style>.cls-1{fill:#1c61e7;}.cls-2{fill:#0c3854;}.cls-3{fill:#083854;mix-blend-mode:multiply;opacity:.1;}.cls-4{isolation:isolate;}</style></defs><g class="cls-4"><g id="Layer_2"><g id="Layer_1-2"><g><g><path class="cls-1" d="M224.71,32.54c-1.32-2.28-3.75-3.69-6.38-3.69h-20.51l10.27-17.79c1.32-2.28,1.32-5.09,0-7.37-1.32-2.28-3.75-3.69-6.38-3.69h-66.63c-2.63,0-5.07,1.4-6.38,3.69s-1.32,5.09,0,7.37l10.27,17.79h-20.34c-2.63,0-5.07,1.4-6.38,3.69s-1.32,5.09,0,7.37l33.23,57.56c1.32,2.28,3.75,3.69,6.38,3.69s5.07-1.4,6.38-3.69l10.23-17.72,10.23,17.72c1.32,2.28,3.75,3.69,6.38,3.69s5.07-1.4,6.38-3.69l33.23-57.56c1.32-2.28,1.32-5.09,0-7.37Zm-35.77-17.79l-20.48,35.48-20.61-35.48h41.09Zm-37.08,64.29l-20.46-35.44h16.08l12.42,21.51-8.04,13.93Zm33.23,0l-8.1-14.04,12.36-21.41h16.21l-20.46,35.44Z"/><polygon class="cls-3" points="138.97 28.85 147.48 43.59 141.58 43.59 132.72 28.85 138.97 28.85"/><polygon class="cls-3" points="197.92 28.85 189.41 43.59 195.31 43.59 204.17 28.85 197.92 28.85"/><polygon class="cls-3" points="180.11 70.4 171.45 84.89 168.48 79.74 176.99 65 180.11 70.4"/><polygon class="cls-3" points="168.46 50.22 159.9 65.11 156.8 59.73 165.31 44.81 168.46 50.22"/></g><g><path class="cls-2" d="M1.27,120.18H14.64c.56,0,1.06,.37,1.22,.91l8.92,29.52c1.23,4.17,2.37,8.34,3.51,15.26,1.14-6.92,2.27-10.9,3.51-15.26l8.36-29.5c.16-.55,.66-.93,1.23-.93h15.22c.58,0,1.08,.39,1.23,.94l7.99,29.48c1.14,4.27,2.27,8.53,3.51,15.26,1.42-7.11,2.46-10.99,3.7-15.07l9.11-29.71c.16-.54,.66-.9,1.22-.9h12.98c.86,0,1.47,.83,1.22,1.65l-20.64,67.59c-.16,.54-.66,.9-1.22,.9h-13.06c-.57,0-1.07-.38-1.23-.93l-12.54-45.13-12.91,45.14c-.16,.55-.66,.92-1.22,.92h-13.16c-.56,0-1.06-.37-1.22-.91L.05,121.82c-.25-.82,.37-1.64,1.22-1.64Z"/><path class="cls-2" d="M92.85,176.39c0-8.72,6.16-14.12,17.53-14.98l13.27-1.04v-.76c0-4.64-2.84-7.11-8.06-7.11-5.62,0-8.87,1.97-9.4,5.55-.09,.62-.62,1.08-1.25,1.08h-9.63c-.75,0-1.33-.64-1.27-1.39,.73-9.92,9.36-16.33,22.32-16.33,13.74,0,21.52,7.68,21.52,21.23v26.4c0,.7-.57,1.27-1.27,1.27h-10.52c-.63,0-1.17-.46-1.26-1.08l-.26-1.75c-.16-1.05-1.47-1.5-2.19-.72-2.67,2.89-7.68,4.78-13.21,4.78-10.05,0-16.3-5.88-16.3-15.17Zm30.9-3.79v-2.56l-7.39,.66c-6.35,.57-8.62,1.99-8.62,5.02,0,3.41,2.08,5.02,6.54,5.02,5.59,0,9.48-2.75,9.48-8.15Z"/><path class="cls-2" d="M177.1,155.4c0,.7-.57,1.27-1.27,1.27h-3.37c-8.34,0-13.37,3.7-13.37,13.08v19.29c0,.7-.57,1.27-1.27,1.27h-12.05c-.7,0-1.27-.57-1.27-1.27v-44.75c0-.7,.57-1.27,1.27-1.27h11.33c.65,0,1.2,.49,1.27,1.14l.64,5.88c1.99-4.64,6.16-7.77,12.51-7.77,1.41,0,2.96,.13,4.58,.45,.59,.11,1.01,.65,1.01,1.25v11.44Z"/><path class="cls-2" d="M179.25,166.91c0-15.07,9.01-25.5,23.41-25.5,5.88,0,11.47,2.37,14.22,5.88v-27.16c0-.7,.57-1.27,1.27-1.27h12.05c.7,0,1.27,.57,1.27,1.27v68.92c0,.7-.57,1.27-1.27,1.27h-11.34c-.64,0-1.18-.48-1.26-1.12l-.62-4.95c-2.56,4.36-8.44,7.3-15.26,7.3-13.65,0-22.46-9.67-22.46-24.64Zm37.53-.57c0-7.11-4.74-11.85-11.56-11.85s-11.28,4.83-11.28,11.85,4.36,11.85,11.28,11.85,11.56-4.74,11.56-11.85Z"/><path class="cls-2" d="M236.1,166.53c0-14.79,9.95-25.12,24.26-25.12s24.17,9.76,24.17,25.21v1.26c0,1.35-1.09,2.44-2.43,2.45l-28.91,.16c-3.93,.42-2.88,4.07-1.74,5.31,2.62,2.88,5.66,3.48,9.33,3.67,5.58,.3,8.66-.08,16.23,.13,1.35,.04,2.41,1.16,2.37,2.52l-.15,5.77c-.03,1.26-1.02,2.61-2.27,2.62-6.96,.04-17.5,0-20.9,0-6.24,0-19.95-7.34-19.95-23.98Zm14.22-5.02h19.71c0-5.02-3.7-8.25-9.57-8.25s-9,2.56-10.14,8.25Z"/><path class="cls-2" d="M289.94,189.05v-44.84c0-.7,.57-1.27,1.27-1.27h11.42c.61,0,1.14,.43,1.25,1.03l.75,3.9c2.94-4.08,8.34-6.44,14.5-6.44,11.28,0,17.82,7.2,17.82,19.62v28.01c0,.7-.57,1.27-1.27,1.27h-12.05c-.7,0-1.27-.57-1.27-1.27v-24.51c0-5.97-3.32-9.86-8.34-9.86-5.78,0-9.48,3.79-9.48,9.67v24.7c0,.7-.57,1.27-1.27,1.27h-12.05c-.7,0-1.27-.57-1.27-1.27Z"/></g></g></g></g></g></svg>