<?xml version="1.0" encoding="UTF-8"?><svg xmlns="http://www.w3.org/2000/svg" viewBox="0 0 159.32 140.82"><defs><style>.cls-1{fill:#0c3854;}.cls-2{fill:#083854;mix-blend-mode:multiply;opacity:.3;}.cls-3{isolation:isolate;}</style></defs><g class="cls-3"><g id="Layer_2"><g id="Layer_1-2"><g><path class="cls-1" d="M157.94,45.3c-1.83-3.18-5.22-5.13-8.89-5.13h-28.55l14.3-24.77c1.83-3.18,1.83-7.09,0-10.26s-5.22-5.13-8.89-5.13H33.16c-3.67,0-7.05,1.96-8.89,5.13s-1.83,7.09,0,10.26l14.3,24.77H10.26c-3.67,0-7.05,1.96-8.89,5.13s-1.83,7.09,0,10.26l46.27,80.13c1.83,3.18,5.22,5.13,8.89,5.13s7.05-1.96,8.89-5.13l14.25-24.67,14.25,24.67c1.83,3.18,5.22,5.13,8.89,5.13s7.05-1.96,8.89-5.13l46.27-80.13c1.83-3.18,1.83-7.09,0-10.26Zm-49.79-24.77l-28.52,49.4L50.94,20.52h57.21ZM56.53,110.04L28.04,60.69h22.39l17.29,29.95-11.2,19.39Zm46.27,0l-11.28-19.54,17.21-29.8h22.57l-28.49,49.35Z"/><polygon class="cls-2" points="38.58 40.17 50.43 60.69 42.21 60.69 29.88 40.17 38.58 40.17"/><polygon class="cls-2" points="120.66 40.17 108.81 60.69 117.02 60.69 129.36 40.17 120.66 40.17"/><polygon class="cls-2" points="95.85 98.01 83.8 118.19 79.66 111.02 91.51 90.5 95.85 98.01"/><polygon class="cls-2" points="79.63 69.92 67.72 90.64 63.4 83.15 75.26 62.39 79.63 69.92"/></g></g></g></g></svg>