<?xml version="1.0" encoding="UTF-8"?><svg id="Layer_2" xmlns="http://www.w3.org/2000/svg" viewBox="0 0 333.37 71.92"><defs><style>.cls-1{fill:#fffffb;}</style></defs><g id="Layer_1-2"><g><path class="cls-1" d="M1.26,1.31H14.48c.56,0,1.05,.36,1.21,.9l8.83,29.2c1.22,4.13,2.34,8.25,3.47,15.1,1.13-6.85,2.25-10.78,3.47-15.1L39.72,2.23c.15-.54,.65-.92,1.21-.92h15.06c.57,0,1.07,.38,1.22,.93l7.91,29.17c1.12,4.22,2.25,8.44,3.47,15.1,1.41-7.03,2.44-10.88,3.66-14.91L81.25,2.2c.16-.53,.65-.89,1.2-.89h12.84c.85,0,1.45,.82,1.21,1.63l-20.42,66.87c-.16,.53-.65,.89-1.21,.89h-12.93c-.57,0-1.06-.38-1.21-.92l-12.4-44.65-12.77,44.66c-.15,.54-.65,.91-1.21,.91h-13.02c-.56,0-1.05-.37-1.21-.9L.05,2.94c-.24-.81,.36-1.62,1.21-1.62Z"/><path class="cls-1" d="M91.86,56.92c0-8.63,6.09-13.97,17.35-14.82l13.13-1.03v-.75c0-4.6-2.81-7.03-7.97-7.03-5.56,0-8.78,1.95-9.3,5.49-.09,.61-.62,1.07-1.24,1.07h-9.53c-.74,0-1.32-.64-1.26-1.38,.73-9.82,9.26-16.16,22.08-16.16,13.6,0,21.29,7.59,21.29,21.01v26.12c0,.7-.56,1.26-1.26,1.26h-10.41c-.62,0-1.15-.46-1.25-1.07l-.26-1.73c-.16-1.04-1.46-1.48-2.17-.71-2.64,2.86-7.6,4.73-13.07,4.73-9.94,0-16.13-5.81-16.13-15Zm30.57-3.75v-2.53l-7.31,.66c-6.28,.56-8.53,1.97-8.53,4.97,0,3.38,2.06,4.97,6.47,4.97,5.53,0,9.38-2.72,9.38-8.06Z"/><path class="cls-1" d="M175.22,36.15c0,.7-.56,1.26-1.26,1.26h-3.33c-8.25,0-13.22,3.66-13.22,12.94v19.09c0,.7-.56,1.26-1.26,1.26h-11.92c-.7,0-1.26-.56-1.26-1.26V25.17c0-.7,.56-1.26,1.26-1.26h11.21c.64,0,1.18,.48,1.25,1.12l.63,5.82c1.97-4.6,6.09-7.69,12.38-7.69,1.4,0,2.93,.13,4.53,.44,.58,.11,1,.64,1,1.24v11.32Z"/><path class="cls-1" d="M177.34,47.54c0-14.91,8.91-25.22,23.16-25.22,5.81,0,11.35,2.34,14.07,5.81V1.26c0-.7,.56-1.26,1.26-1.26h11.92c.7,0,1.26,.56,1.26,1.26V69.44c0,.7-.56,1.26-1.26,1.26h-11.22c-.64,0-1.17-.47-1.25-1.1l-.61-4.9c-2.53,4.31-8.35,7.22-15.1,7.22-13.5,0-22.23-9.56-22.23-24.38Zm37.13-.56c0-7.03-4.69-11.72-11.44-11.72s-11.16,4.78-11.16,11.72,4.31,11.72,11.16,11.72,11.44-4.69,11.44-11.72Z"/><path class="cls-1" d="M233.59,47.17c0-14.63,9.85-24.85,24.01-24.85s23.91,9.66,23.91,24.94v1.25c0,1.33-1.08,2.41-2.41,2.42l-28.61,.16c-3.89,.42-2.85,4.02-1.72,5.26,2.6,2.85,5.6,3.44,9.23,3.63,5.52,.3,8.57-.08,16.06,.13,1.34,.04,2.38,1.15,2.34,2.49l-.15,5.71c-.03,1.24-1.01,2.59-2.25,2.59-6.88,.04-17.31,0-20.67,0-6.18,0-19.74-7.26-19.74-23.73Zm14.07-4.97h19.5c0-4.97-3.66-8.16-9.47-8.16s-8.91,2.53-10.03,8.16Z"/><path class="cls-1" d="M286.85,69.44V25.08c0-.7,.56-1.26,1.26-1.26h11.3c.6,0,1.12,.43,1.24,1.02l.74,3.85c2.91-4.03,8.25-6.38,14.35-6.38,11.16,0,17.63,7.13,17.63,19.41v27.72c0,.7-.56,1.26-1.26,1.26h-11.92c-.7,0-1.26-.56-1.26-1.26v-24.25c0-5.91-3.28-9.75-8.25-9.75-5.72,0-9.38,3.75-9.38,9.56v24.43c0,.7-.56,1.26-1.26,1.26h-11.92c-.7,0-1.26-.56-1.26-1.26Z"/></g></g></svg>